<svg width="323" height="323" viewBox="0 0 323 323" fill="none" xmlns="http://www.w3.org/2000/svg">
<path d="M161.27 0C184.308 0 205.503 4.16477 224.855 12.4941C244.515 20.5151 261.717 31.7759 276.462 46.2754C291.207 60.7749 302.573 77.8967 310.56 97.6406C318.853 117.384 323 138.671 323 161.5C323 184.329 318.853 205.615 310.56 225.359C302.573 245.103 291.207 262.38 276.462 277.188C274.029 279.58 271.527 281.882 268.96 284.098L242.678 238.379C241.149 235.72 239.324 234.081 237.202 233.461C235.081 232.841 232.897 233.182 230.652 234.483C229.386 235.218 228.183 236.263 227.043 237.617C225.87 238.914 224.779 240.356 223.772 241.941L212.598 259.751L225.312 268.45L234.398 253.816C234.456 253.783 234.469 253.737 234.436 253.68C234.453 253.613 234.494 253.553 234.561 253.499L257.374 293.183C248.329 299.605 238.567 305.079 228.086 309.608L201.022 262.531C199.494 259.872 197.668 258.232 195.547 257.612C193.425 256.993 191.242 257.333 188.997 258.635C187.731 259.369 186.528 260.414 185.388 261.769C184.214 263.065 183.124 264.507 182.117 266.093L170.943 283.903L183.657 292.603L192.744 277.969C192.801 277.935 192.813 277.89 192.78 277.832C192.798 277.765 192.84 277.704 192.906 277.65L214.309 314.879C197.872 320.29 180.193 322.999 161.27 322.999C138.538 322.999 117.343 318.989 97.6836 310.968C78.0242 302.947 60.8217 291.687 46.0771 277.188C31.6398 262.38 20.2743 245.103 11.9805 225.359C3.99382 205.615 3.72841e-05 184.329 0 161.5C0 138.671 3.99383 117.385 11.9805 97.6406C20.2743 77.8967 31.6397 60.7748 46.0771 46.2754C60.8218 31.7759 78.0241 20.5151 97.6836 12.4941C117.343 4.16474 138.538 9.35713e-06 161.27 0Z" fill="black"/>
<path d="M180.893 203.024V185.104C187.464 185.104 192.072 183.824 194.717 181.264C197.362 178.619 198.685 174.949 198.685 170.256L198.557 115.856H217.373V168.848C217.373 179.685 214.386 188.091 208.413 194.064C202.44 200.037 193.266 203.024 180.893 203.024Z" fill="#F2F2F2"/>
<path d="M125.458 201.872L106.77 202V115.856H137.106C145.298 115.856 152.295 117.093 158.098 119.568C163.986 122.043 168.509 125.584 171.666 130.192C174.909 134.8 176.53 140.475 176.53 147.216C176.53 154.128 174.951 159.973 171.794 164.752C168.722 169.445 164.327 173.029 158.61 175.504C152.893 177.979 146.066 179.216 138.13 179.216H121.106L123.538 161.936H137.618C141.799 161.936 145.341 161.424 148.242 160.4C151.143 159.291 153.362 157.669 154.898 155.536C156.519 153.317 157.33 150.544 157.33 147.216C157.33 144.059 156.519 141.456 154.898 139.408C153.362 137.275 151.101 135.696 148.114 134.672C145.213 133.648 141.714 133.136 137.618 133.136H125.458V201.872Z" fill="#F2F2F2"/>
</svg>
