<svg width="1024" height="1024" viewBox="0 0 323 323" fill="none" xmlns="http://www.w3.org/2000/svg">
  <path
    d="M161.27 0C184.308 0 205.503 4.16477 224.855 12.4941C244.515 20.5151 261.717 31.7759 276.462 46.2754C291.207 60.7749 302.573 77.8967 310.56 97.6406C318.853 117.384 323 138.671 323 161.5C323 184.329 318.853 205.615 310.56 225.359C302.573 245.103 291.207 262.38 276.462 277.188C274.029 279.58 271.527 281.882 268.96 284.098L242.678 238.379C241.149 235.72 239.324 234.081 237.202 233.461C235.081 232.841 232.897 233.182 230.652 234.483C229.386 235.218 228.183 236.263 227.043 237.617C225.87 238.914 224.779 240.356 223.772 241.941L212.598 259.751L225.312 268.45L234.398 253.816C234.456 253.783 234.469 253.737 234.436 253.68C234.453 253.613 234.494 253.553 234.561 253.499L257.374 293.183C248.329 299.605 238.567 305.079 228.086 309.608L201.022 262.531C199.494 259.872 197.668 258.232 195.547 257.612C193.425 256.993 191.242 257.333 188.997 258.635C187.731 259.369 186.528 260.414 185.388 261.769C184.214 263.065 183.124 264.507 182.117 266.093L170.943 283.903L183.657 292.603L192.744 277.969C192.801 277.935 192.813 277.89 192.78 277.832C192.798 277.765 192.84 277.704 192.906 277.65L214.309 314.879C197.872 320.29 180.193 322.999 161.27 322.999C138.538 322.999 117.343 318.989 97.6836 310.968C78.0242 302.947 60.8217 291.687 46.0771 277.188C31.6398 262.38 20.2743 245.103 11.9805 225.359C3.99382 205.615 3.72841e-05 184.329 0 161.5C0 138.671 3.99383 117.385 11.9805 97.6406C20.2743 77.8967 31.6397 60.7748 46.0771 46.2754C60.8218 31.7759 78.0241 20.5151 97.6836 12.4941C117.343 4.16474 138.538 9.35713e-06 161.27 0Z"
    fill="#0f172a"
  />
  <path
    d="M207.777 203.792C201.462 203.792 195.574 202.64 190.113 200.336C184.737 198.032 180.001 194.832 175.905 190.736C171.894 186.64 168.737 181.904 166.433 176.528C164.214 171.067 163.105 165.221 163.105 158.992C163.105 152.763 164.214 146.96 166.433 141.584C168.652 136.123 171.766 131.387 175.777 127.376C179.873 123.28 184.652 120.08 190.113 117.776C195.574 115.472 201.462 114.32 207.777 114.32C212.641 114.32 217.42 115.131 222.113 116.752C226.806 118.373 230.988 120.763 234.657 123.92C238.412 126.992 241.356 130.875 243.489 135.568L228.257 144.144C226.806 141.584 225.057 139.408 223.009 137.616C221.046 135.739 218.742 134.331 216.097 133.392C213.452 132.368 210.422 131.856 207.009 131.856C203.34 131.856 200.012 132.581 197.025 134.032C194.038 135.397 191.436 137.317 189.217 139.792C186.998 142.181 185.292 145.04 184.097 148.368C182.902 151.696 182.305 155.323 182.305 159.248C182.305 163.259 182.902 166.971 184.097 170.384C185.377 173.712 187.126 176.613 189.345 179.088C191.564 181.563 194.252 183.483 197.409 184.848C200.566 186.128 204.022 186.768 207.777 186.768C210.593 186.768 213.153 186.512 215.457 186C217.761 185.488 219.809 184.805 221.601 183.952C223.478 183.013 225.057 181.861 226.337 180.496L226.209 161.424H244.385V186.768C242.337 189.925 239.521 192.784 235.937 195.344C232.353 197.904 228.172 199.952 223.393 201.488C218.614 203.024 213.409 203.792 207.777 203.792Z"
    fill="#ffffff"
  />
  <path
    d="M116.014 203.792C111.065 203.792 106.969 202.469 103.726 199.824C100.569 197.179 98.1793 193.211 96.558 187.92L74.414 115.856H93.614L113.454 182.544C113.795 183.397 114.137 184.037 114.478 184.464C114.905 184.891 115.459 185.104 116.142 185.104C116.825 185.104 117.337 184.891 117.678 184.464C118.105 184.037 118.446 183.397 118.702 182.544L138.414 115.856H157.614L135.47 187.92C133.849 193.211 131.459 197.179 128.302 199.824C125.145 202.469 121.049 203.792 116.014 203.792Z"
    fill="#ffffff"
  />
</svg>
